<?xml version="1.0" encoding="UTF-8" standalone="no"?> <svg id="deep_black" data-name="deep black" xmlns="http://www.w3.org/2000/svg" viewBox="0 0 512 512"><defs><style>.cls-1{fill:none;stroke:#000;stroke-linejoin:round;stroke-width:16px;}</style></defs><path d="M216,336.64V360a103.41,103.41,0,0,0-62.56,20.93h0A70,70,0,0,1,104,314V226a16,16,0,0,0,8-13.85V224a16,16,0,1,0,32,0v8A112,112,0,0,0,216,336.64Z"/><path d="M408,226v87a71,71,0,0,1-49.68,67.74A103.45,103.45,0,0,0,296,360V336.64A112,112,0,0,0,368,232v-8a16,16,0,0,0,32,0V212.15A16,16,0,0,0,408,226Z"/><path d="M287.25,92.43a112.22,112.22,0,0,0-89,11.57L176,76.15V46.73a152.15,152.15,0,0,1,160,0V76.15L313.72,104A110.86,110.86,0,0,0,287.25,92.43Z"/><path class="cls-1" d="M144,224v8a112,112,0,1,0,224,0v-8"/><path class="cls-1" d="M198.28,104a112,112,0,0,1,115.44,0"/><polyline class="cls-1" points="216 336.64 216 360 216 384"/><polyline class="cls-1" points="296 384 296 360 296 336.64"/><path class="cls-1" d="M153.44,380.93A103.41,103.41,0,0,1,216,360"/><path class="cls-1" d="M296,360a103.45,103.45,0,0,1,62.32,20.74c1.41,1.05,2.78,2.14,4.13,3.26A103.77,103.77,0,0,1,400,464v24H112V464a103.77,103.77,0,0,1,37.55-80c1.27-1.05,2.56-2.08,3.88-3.07"/><path class="cls-1" d="M153.44,380.93h0A70,70,0,0,1,104,314V226"/><path class="cls-1" d="M408,226v87a71,71,0,0,1-49.68,67.74"/><path class="cls-1" d="M176,46.73a152.15,152.15,0,0,1,160,0"/><path class="cls-1" d="M288,80a102.06,102.06,0,0,1-.75,12.43A103.94,103.94,0,0,1,184,184h-8"/><line class="cls-1" x1="145.14" y1="184" x2="144" y2="184"/><path class="cls-1" d="M272,240H248V192a40,40,0,0,0-40-40"/><path class="cls-1" d="M216,280a77.76,77.76,0,0,0,80,0"/><line class="cls-1" x1="288" y1="192" x2="328" y2="192"/><path class="cls-1" d="M400,212.15a16,16,0,1,0,32,0V104l-8-24V16"/><path class="cls-1" d="M400,152v72a16,16,0,1,1-32,0V208"/><path class="cls-1" d="M368,152v56a16,16,0,1,1-32,0V164.15"/><path class="cls-1" d="M336,124.15v40a16,16,0,1,1-32,0v-48L313.72,104,336,76.15V16"/><path class="cls-1" d="M112,212.15a16,16,0,1,1-32,0V104l8-24V16"/><path class="cls-1" d="M112,152v72a16,16,0,1,0,32,0V208"/><path class="cls-1" d="M144,152v56a16,16,0,1,0,32,0V164.15"/><path class="cls-1" d="M176,124.15v40a16,16,0,1,0,32,0v-48L198.28,104,176,76.15V16"/></svg>