<?xml version="1.0" encoding="UTF-8"?>
<!DOCTYPE svg PUBLIC "-//W3C//DTD SVG 1.1//EN" "http://www.w3.org/Graphics/SVG/1.1/DTD/svg11.dtd">
<!-- Creator: CorelDRAW -->
<svg xmlns="http://www.w3.org/2000/svg" xml:space="preserve" width="1.70666in" height="1.70666in" version="1.1" style="shape-rendering:geometricPrecision; text-rendering:geometricPrecision; image-rendering:optimizeQuality; fill-rule:evenodd; clip-rule:evenodd"
viewBox="0 0 1707 1707"
 xmlns:xlink="http://www.w3.org/1999/xlink">
 <defs>
  <style type="text/css">
   <![CDATA[
    .fil0 {fill:black}
   ]]>
  </style>
 </defs>
 <g id="Layer_x0020_1">
  <metadata id="CorelCorpID_0Corel-Layer"/>
  <path class="fil0" d="M303 443c-7,0 -14,-3 -19,-7l-114 -115c-25,-24 13,-62 37,-37l114 114c17,17 6,45 -18,45zm1101 0c-24,0 -35,-28 -19,-45l115 -114c24,-25 61,13 37,37l-114 115c-5,4 -12,7 -19,7zm-161 -124c-20,0 -33,-22 -23,-40l81 -139c17,-30 63,-4 45,26l-80 140c-5,9 -14,13 -23,13zm-188 -78c-17,0 -30,-16 -26,-33l42 -156c9,-33 60,-20 51,14l-42 156c-3,12 -13,19 -25,19zm-202 -26c-14,0 -26,-12 -26,-26l0 -162c0,-35 53,-35 53,0l0 162c0,14 -12,26 -27,26zm184 702c-25,0 -49,-8 -68,-21l0 348 86 0c54,-233 198,-193 198,-444 0,-220 -180,-399 -400,-399 -220,0 -399,179 -399,399 0,252 144,211 198,444l86 0 0 -348c-19,13 -43,21 -68,21 -67,0 -121,-54 -121,-121 0,-67 54,-121 121,-121 67,0 121,54 121,121l0 1 0 0 0 447 125 0 0 -447 0 0 0 -1c0,-67 54,-121 121,-121 67,0 121,54 121,121 0,67 -54,121 -121,121zm0 -189c-90,0 -90,136 0,136 89,0 89,-136 0,-136zm-367 0c-90,0 -90,136 0,136 90,0 89,-136 0,-136zm183 978c-70,0 -127,-54 -133,-123 -58,-13 -100,-64 -100,-126 0,-462 -219,-318 -219,-657 0,-249 203,-452 452,-452 250,0 453,203 453,452 0,339 -219,195 -219,657 0,61 -43,113 -100,126 -6,69 -64,123 -134,123zm-79 -119c15,88 144,88 159,0l-159 0zm261 -176l-363 0c0,15 1,30 1,46 0,42 34,77 76,77l209 0c42,0 76,-35 76,-77 0,-16 1,-31 1,-46zm-366 -53l369 0c2,-22 4,-42 7,-61l-103 0 -178 0 -102 0c3,19 5,39 7,61zm-17 -1117c-12,0 -23,-7 -26,-19l-41 -156c-9,-34 42,-47 51,-14l41 156c5,16 -6,33 -25,33zm-188 78c-9,0 -18,-4 -23,-13l-81 -140c-17,-30 29,-56 46,-26l81 139c10,18 -3,40 -23,40z"/>
 </g>
</svg>
