<?xml version="1.0" encoding="iso-8859-1"?>
<!-- Generator: Adobe Illustrator 20.0.0, SVG Export Plug-In . SVG Version: 6.00 Build 0)  -->
<svg version="1.1" id="Layer_1_1_" xmlns="http://www.w3.org/2000/svg" xmlns:xlink="http://www.w3.org/1999/xlink" x="0px" y="0px"
	 viewBox="0 0 64 64" style="enable-background:new 0 0 64 64;" xml:space="preserve">
<path d="M58.581,38.14l-11.79-3.931l-3.931-11.79C42.179,20.374,40.272,19,38.117,19H36.82l-0.839-4.196
	C35.887,14.337,35.477,14,35,14h-6c-0.477,0-0.887,0.337-0.98,0.804L27.18,19h-9.297c-2.155,0-4.062,1.374-4.743,3.419L9.279,34H7
	c-2.757,0-5,2.243-5,5v12c0,2.757,2.243,5,5,5h4.08c0.488,3.386,3.401,6,6.92,6s6.432-2.614,6.92-6h13.16
	c0.488,3.386,3.401,6,6.92,6s6.432-2.614,6.92-6H57c2.757,0,5-2.243,5-5v-8.117C62,40.728,60.626,38.821,58.581,38.14z M60,42.883
	V43h-1c-1.654,0-3-1.346-3-3v-0.613l1.948,0.649C59.176,40.446,60,41.59,60,42.883z M29.819,16h4.361l0.6,3H29.22L29.819,16z M18,60
	c-2.757,0-5-2.243-5-5s2.243-5,5-5s5,2.243,5,5S20.757,60,18,60z M45,60c-2.757,0-5-2.243-5-5s2.243-5,5-5s5,2.243,5,5
	S47.757,60,45,60z M57,54h-5.08c-0.488-3.386-3.401-6-6.92-6s-6.432,2.614-6.92,6H29V36h12.135c0.314,0,0.611-0.148,0.8-0.4
	c0.189-0.251,0.248-0.577,0.16-0.88l-3.208-11c-0.124-0.427-0.516-0.72-0.96-0.72H18.073c-0.444,0-0.836,0.293-0.96,0.72l-3.208,11
	c-0.088,0.303-0.029,0.629,0.16,0.88c0.188,0.252,0.485,0.4,0.8,0.4H27v18h-2.08c-0.488-3.386-3.401-6-6.92-6s-6.432,2.614-6.92,6H7
	c-1.654,0-3-1.346-3-3V39c0-1.654,1.346-3,3-3h3c0.431,0,0.812-0.275,0.948-0.684l4.088-12.265C15.446,21.824,16.59,21,17.883,21H28
	h8h2.117c1.293,0,2.437,0.824,2.847,2.052l4.088,12.265c0.099,0.299,0.333,0.533,0.632,0.632L54,38.72V40c0,2.757,2.243,5,5,5h1v6
	C60,52.654,58.654,54,57,54z M29,25h8.177l2.625,9H29V25z M27,34H16.198l2.625-9H27V34z"/>
<rect x="31" y="38" width="4" height="2"/>
<rect x="15" y="38" width="4" height="2"/>
<rect x="50" y="6" width="2" height="2"/>
<rect x="46" y="6" width="2" height="2"/>
<rect x="46" y="10" width="2" height="2"/>
<rect x="46" y="2" width="2" height="2"/>
<rect x="39" y="6" width="2" height="2"/>
<rect x="35" y="6" width="2" height="2"/>
<rect x="35" y="10" width="2" height="2"/>
<rect x="35" y="2" width="2" height="2"/>
<rect x="28" y="6" width="2" height="2"/>
<rect x="24" y="6" width="2" height="2"/>
<rect x="24" y="10" width="2" height="2"/>
<rect x="24" y="2" width="2" height="2"/>
<rect x="17" y="6" width="2" height="2"/>
<rect x="13" y="6" width="2" height="2"/>
<rect x="13" y="10" width="2" height="2"/>
<rect x="13" y="2" width="2" height="2"/>
</svg>
